<svg width="260" height="285" viewBox="0 0 260 285" fill="none" xmlns="http://www.w3.org/2000/svg">
<path d="M229.893 151.458C229.893 151.458 229.046 195.046 231.46 251.989C231.593 255.742 232.383 259.432 233.786 262.858C234.096 263.602 234.367 264.365 234.599 265.142C236.141 270.312 232.314 275.526 227.146 275.432L203.491 275.001C196.014 274.864 189.949 268.598 189.717 260.769L188.041 204.409L229.893 151.458Z" fill="#AF543F"/>
<path d="M159.934 42.527C159.934 42.527 120.169 46.5706 85.8918 90.2226C85.5861 90.6137 85.4257 91.1164 85.4422 91.6311C85.4588 92.1457 85.6512 92.6348 85.9812 93.0013C87.2132 94.4352 88.7701 95.4854 90.493 96.0449C90.493 96.0449 44.1717 114.491 24.1303 176.583C24.1303 176.583 0.0206331 249.02 46.4597 272.821C49.5079 274.367 52.8283 275.16 56.1868 275.146H117.512C120.977 275.18 124.403 274.334 127.52 272.674C131.075 270.812 133.971 267.719 135.761 263.872C135.761 263.872 139.553 275.143 149.27 275.143H167.631C169.022 275.159 170.401 274.869 171.688 274.292C172.975 273.714 174.144 272.861 175.125 271.781C179.465 266.893 177.295 260.776 176.724 254.79C176.172 249.777 175.963 244.726 176.097 239.678V235.278C176.071 232.747 176.499 230.234 177.359 227.885C178.218 225.535 179.491 223.393 181.106 221.583C182.98 219.542 185.263 218.009 187.774 217.109C187.774 217.109 215.165 207.62 228.633 165.13C232.156 153.854 233.931 142.01 233.884 130.092V120.203C235.078 121.193 236.168 122.327 237.132 123.583C237.291 123.784 237.495 123.936 237.725 124.022C237.954 124.109 238.2 124.127 238.438 124.075C238.676 124.022 238.897 123.902 239.079 123.725C239.26 123.548 239.395 123.322 239.471 123.069C241.395 116.504 245.331 98.4314 237.202 80.1939L159.934 42.527Z" fill="#E8947E"/>
<path d="M237.199 80.1973L159.934 42.527C159.934 42.527 159.394 41.5429 150.701 44.5019C132.328 61.3563 133.696 83.2904 133.7 84.1747C133.709 85.947 134.357 87.6434 135.504 88.8932C136.65 90.143 138.201 90.8446 139.818 90.8446C140.057 90.8445 140.296 90.8294 140.533 90.7993L142.664 90.5244C143.924 101.552 148.038 107.884 148.594 108.696C149.162 109.527 149.898 110.201 150.745 110.667C151.591 111.132 152.524 111.376 153.471 111.379H153.488C154.424 111.379 155.348 111.143 156.188 110.691C157.028 110.238 157.762 109.58 158.333 108.767C169.557 126.685 184.679 130.03 185.412 130.182C186.405 130.388 187.43 130.321 188.394 129.988C189.358 129.654 190.232 129.063 190.936 128.268L191.089 128.101L191.198 128.24C191.948 129.205 192.933 129.917 194.038 130.294C195.143 130.67 196.322 130.695 197.439 130.367C198.161 130.154 212.693 125.694 222.38 109.192C222.954 109.881 223.652 110.432 224.43 110.809C225.209 111.186 226.05 111.38 226.901 111.381H226.918C227.865 111.378 228.798 111.134 229.645 110.668C230.491 110.203 231.227 109.529 231.795 108.698C232.351 107.886 236.465 101.554 237.725 90.5261L239.856 90.801C240.093 90.8311 240.332 90.8462 240.571 90.8463C240.615 90.8463 240.658 90.8412 240.702 90.8404C239.888 87.1644 238.714 83.5959 237.199 80.1973Z" fill="#AF543F"/>
<path d="M226.783 46.0024C228.475 34.8757 227.318 26.3458 225.344 20.137C221.629 8.46623 207.644 5.75873 200.774 15.5636C198.508 18.8886 196.72 22.5743 195.472 26.4925C193.774 26.0524 186.611 26.0524 184.914 26.4925C183.665 22.5743 181.877 18.8886 179.612 15.5636C172.742 5.75622 158.756 8.46372 155.042 20.137C153.067 26.3458 151.907 34.8757 153.603 46.0024C139.716 63.2147 139.817 84.1421 139.817 84.1421L148.425 83.0323C148.171 96.9068 153.487 104.676 153.487 104.676L159.057 96.6293C168.929 119.937 186.55 123.597 186.55 123.597L191.384 118.148L195.85 123.891C195.85 123.891 213.692 118.641 221.329 96.6293L226.898 104.676C226.898 104.676 232.214 96.9068 231.961 83.0323L240.568 84.1421C240.568 84.1421 240.67 63.2147 226.783 46.0024Z" fill="#E8947E"/>
<path d="M164.234 37.0543C166.854 35.1967 171.58 31.9159 175.279 29.7281C175.808 29.4177 176.218 28.91 176.434 28.2969C176.651 27.6838 176.66 27.0059 176.46 26.386C176.179 25.5159 175.814 24.4581 175.367 23.3281C172.622 16.3708 163.184 17.5577 162.043 25.0314C161.528 28.6073 161.483 32.2454 161.907 35.8355C161.935 36.117 162.028 36.386 162.177 36.617C162.326 36.848 162.527 37.0334 162.76 37.1555C162.993 37.2775 163.251 37.3323 163.509 37.3146C163.767 37.2969 164.016 37.2073 164.234 37.0543Z" fill="#AF543F"/>
<path d="M217.08 36.3207C214.459 34.464 209.734 31.1824 206.035 28.9946C205.506 28.6843 205.096 28.1768 204.879 27.5638C204.663 26.9509 204.653 26.2731 204.853 25.6534C205.135 24.7824 205.5 23.7254 205.947 22.5955C208.691 15.6381 218.129 16.8242 219.271 24.2979C219.785 27.8738 219.831 31.5119 219.407 35.1019C219.379 35.3835 219.286 35.6525 219.137 35.8835C218.987 36.1145 218.786 36.2999 218.553 36.4219C218.32 36.544 218.063 36.5988 217.805 36.5811C217.547 36.5634 217.297 36.4738 217.08 36.3207Z" fill="#AF543F"/>
<path d="M202.494 166.515L200.215 161.714C197.263 165.017 192.137 168.023 188.703 169.817C187.676 170.352 186.538 170.58 185.405 170.476C184.271 170.373 183.183 169.944 182.25 169.23C176.65 164.965 170.8 161.108 164.738 157.685C158.456 154.241 151.824 151.621 144.981 149.879C150.843 154.242 156.306 159.218 161.292 164.736C177.861 181.615 190.946 186.781 196.83 188.342C197.845 188.608 198.9 188.638 199.926 188.429C200.952 188.22 201.927 187.777 202.787 187.128C216.858 176.567 225.735 164.915 231.145 155.726C232.98 147.329 233.898 138.724 233.88 130.091V120.203C224.923 152.475 211.041 164.126 205.73 167.546C205.458 167.72 205.156 167.832 204.843 167.874C204.531 167.916 204.213 167.888 203.911 167.791C203.608 167.695 203.326 167.532 203.083 167.313C202.839 167.093 202.639 166.822 202.494 166.515Z" fill="#AF543F"/>
<path d="M178.874 68.4486C178.212 68.4497 177.568 68.2142 177.039 67.778C175.406 66.5248 173.598 65.5726 171.686 64.9591C171.297 64.8456 170.933 64.6495 170.614 64.3818C170.295 64.1142 170.028 63.7803 169.826 63.3992C169.625 63.0181 169.494 62.5973 169.441 62.1608C169.388 61.7242 169.414 61.2806 169.518 60.855C169.621 60.4295 169.8 60.0305 170.044 59.6808C170.288 59.3311 170.593 59.0376 170.941 58.8169C171.643 58.3712 172.478 58.2496 173.262 58.4787C175.93 59.3178 178.448 60.6486 180.708 62.4142C181.222 62.8364 181.601 63.4251 181.793 64.0968C181.984 64.7685 181.978 65.4892 181.775 66.1568C181.572 66.8244 181.182 67.4051 180.662 67.8166C180.141 68.228 179.515 68.4495 178.873 68.4495L178.874 68.4486Z" fill="#373D4C"/>
<path d="M201.511 68.4487C200.869 68.4487 200.244 68.2273 199.723 67.8158C199.202 67.4043 198.813 66.8236 198.61 66.156C198.407 65.4884 198.4 64.7677 198.592 64.096C198.783 63.4243 199.163 62.8356 199.676 62.4134C201.937 60.6483 204.455 59.3178 207.123 58.4787C207.907 58.2487 208.741 58.3694 209.444 58.8142C210.146 59.259 210.659 59.9915 210.869 60.8505C211.079 61.7095 210.968 62.6247 210.563 63.3948C210.157 64.1648 209.489 64.7266 208.705 64.9566C206.791 65.5706 204.981 66.524 203.347 67.7789C202.818 68.2146 202.174 68.4496 201.511 68.4487Z" fill="#373D4C"/>
<path d="M122.27 187.561C121.689 185.689 120.627 184.041 119.211 182.816L119.164 182.776C118.814 182.47 118.383 182.299 117.936 182.287C117.488 182.275 117.05 182.424 116.687 182.71C116.324 182.996 116.056 183.405 115.924 183.873C115.792 184.342 115.803 184.845 115.956 185.305C118.885 194.092 120.77 203.256 121.566 212.57C121.566 212.57 123.325 244.79 130.707 270.504C132.836 268.752 134.565 266.483 135.758 263.875C128.609 246.775 127.028 211.815 127.028 211.815C126.224 203.569 124.629 195.44 122.27 187.561Z" fill="#AF543F"/>
<path d="M178.817 200.372C178.731 200.009 178.524 199.694 178.238 199.488C177.952 199.282 177.607 199.199 177.268 199.255C176.93 199.312 176.623 199.504 176.406 199.795C176.189 200.085 176.078 200.453 176.094 200.828C177.29 209.393 176.542 226.813 176.22 233.016C176.61 228.706 178.333 224.672 181.103 221.583C181.816 220.808 182.59 220.105 183.417 219.481L178.817 200.372Z" fill="#AF543F"/>
<path d="M107.338 224.266H107.294C106.759 224.257 106.237 224.096 105.777 223.797C105.318 223.498 104.937 223.073 104.674 222.563C102.123 217.613 96.1625 212.611 96.1021 212.561L95.9951 212.467C93.2094 209.895 89.9703 207.979 86.4796 206.839C82.9889 205.7 79.3214 205.361 75.7059 205.843C75.2141 205.938 74.7084 205.901 74.2329 205.733C73.7574 205.566 73.3263 205.274 72.9773 204.882C72.6282 204.491 72.3717 204.011 72.2301 203.486C72.0884 202.961 72.0659 202.406 72.1645 201.87C72.4025 200.425 72.4976 198.957 72.4482 197.49C68.523 199.449 64.8605 201.987 61.5627 205.034C60.9578 205.617 60.1673 205.916 59.3631 205.864C58.5588 205.812 57.8056 205.415 57.267 204.758C56.7285 204.101 56.4482 203.238 56.4869 202.356C56.5256 201.473 56.8802 200.644 57.4738 200.047C62.4027 195.426 68.0826 191.865 74.2155 189.553C74.6369 189.402 75.0831 189.354 75.5232 189.412C75.9633 189.469 76.3867 189.631 76.7642 189.885C77.1416 190.14 77.4641 190.481 77.7094 190.886C77.9546 191.291 78.1166 191.749 78.1843 192.229C78.4699 194.442 78.5955 196.676 78.5598 198.911H78.7127C86.4368 198.9 93.9202 201.856 99.8622 207.265C102.66 209.659 105.222 212.364 107.509 215.338C110.451 212.005 115.659 207.854 122.858 208.763C123.258 208.813 123.645 208.948 123.997 209.162C124.349 209.375 124.659 209.663 124.91 210.008C125.16 210.354 125.346 210.75 125.457 211.174C125.567 211.598 125.601 212.042 125.554 212.48C125.508 212.919 125.383 213.343 125.187 213.728C124.991 214.113 124.728 214.453 124.412 214.726C124.096 215 123.734 215.202 123.347 215.322C122.96 215.442 122.555 215.477 122.155 215.425C114.558 214.46 110.002 222.562 109.957 222.644C109.685 223.138 109.301 223.548 108.842 223.832C108.383 224.116 107.865 224.266 107.338 224.266Z" fill="#AF543F"/>
<path d="M167.688 170.847L156.501 153.721C135.801 145.012 131.881 139.38 124.052 120.02C123.397 118.399 122.631 116.863 121.013 116.853C120.235 116.852 119.485 117.174 118.915 117.756C118.346 118.338 117.999 119.135 117.946 119.987C117.813 122.345 117.242 124.649 116.27 126.757C116.27 126.757 109.054 118.547 110.803 95.5832C110.829 95.2321 110.74 94.8823 110.552 94.5969C110.363 94.3115 110.088 94.1092 109.776 94.0264C109.463 93.9437 109.134 93.986 108.848 94.1457C108.561 94.3054 108.336 94.572 108.214 94.8975L108.199 94.9377C107.882 95.8187 100.585 116.713 113.885 134.655C114.15 135.013 114.479 135.307 114.853 135.518C115.226 135.73 115.635 135.855 116.055 135.886C116.474 135.917 116.895 135.852 117.291 135.697C117.687 135.541 118.049 135.298 118.355 134.982C119.33 133.904 120.181 132.699 120.889 131.393C122.36 134.748 124.198 137.894 126.361 140.763C131.335 147.371 137.578 152.695 144.645 156.354C152.686 160.463 160.394 165.311 167.688 170.847Z" fill="#AF543F"/>
<path d="M190.193 73.3741C188.074 73.3698 185.969 73.7651 183.972 74.5426C180.531 75.8879 179.139 80.0104 181 83.1831C183.041 86.5477 185.856 89.2627 189.16 91.0541C189.481 91.2291 189.834 91.3202 190.192 91.3202C190.551 91.3202 190.904 91.2291 191.225 91.0541C194.528 89.2624 197.343 86.5475 199.384 83.1831C201.245 80.0104 199.857 75.8904 196.412 74.5426C194.415 73.7653 192.312 73.3701 190.193 73.3741Z" fill="#373D4C"/>
<path d="M133.676 265.649L124.256 238.688C124.256 238.688 125.533 252.914 113.387 259.764C110.006 261.619 106.27 262.563 102.49 262.519H55.1835C46.7957 262.55 38.6379 259.515 31.9999 253.895C27.9466 250.385 24.3266 246.313 21.2305 241.781C25.0441 254.311 32.6162 265.727 46.4589 272.821C49.5069 274.367 52.8271 275.16 56.1852 275.146H117.51C120.976 275.18 124.401 274.334 127.519 272.674C130.179 271.255 132.49 269.157 134.256 266.555L133.676 265.649Z" fill="#AF543F"/>
</svg>
